<svg xmlns="http://www.w3.org/2000/svg" version="1.1" xmlns:xlink="http://www.w3.org/1999/xlink" xmlns:svgjs="http://svgjs.com/svgjs" width="1440" height="250" preserveAspectRatio="none" viewBox="0 0 1440 250"><g mask="url(&quot;#SvgjsMask1006&quot;)" fill="none"><path d="M41 250L291 0L603 0L353 250z" fill="url(#SvgjsLinearGradient1007)"></path><path d="M249.60000000000002 250L499.6 0L631.6 0L381.6 250z" fill="url(#SvgjsLinearGradient1007)"></path><path d="M496.20000000000005 250L746.2 0L785.2 0L535.2 250z" fill="url(#SvgjsLinearGradient1007)"></path><path d="M731.8000000000001 250L981.8000000000001 0L1101.8000000000002 0L851.8000000000001 250z" fill="url(#SvgjsLinearGradient1007)"></path><path d="M1397 250L1147 0L940 0L1190 250z" fill="url(#SvgjsLinearGradient1008)"></path><path d="M1163.4 250L913.4000000000001 0L601.4000000000001 0L851.4000000000001 250z" fill="url(#SvgjsLinearGradient1008)"></path><path d="M943.8 250L693.8 0L650.3 0L900.3 250z" fill="url(#SvgjsLinearGradient1008)"></path><path d="M707.1999999999999 250L457.19999999999993 0L398.69999999999993 0L648.6999999999999 250z" fill="url(#SvgjsLinearGradient1008)"></path><path d="M1282.4294858248518 250L1440 92.42948582485187L1440 250z" fill="url(#SvgjsLinearGradient1007)"></path><path d="M0 250L157.57051417514813 250L 0 92.42948582485187z" fill="url(#SvgjsLinearGradient1008)"></path></g><defs><mask id="SvgjsMask1006"><rect width="1440" height="250" fill="#ffffff"></rect></mask><linearGradient x1="0%" y1="100%" x2="100%" y2="0%" id="SvgjsLinearGradient1007"><stop stop-color="rgba(209, 188, 0, 0.2)" offset="0"></stop><stop stop-opacity="0" stop-color="rgba(209, 188, 0, 0.2)" offset="0.66"></stop></linearGradient><linearGradient x1="100%" y1="100%" x2="0%" y2="0%" id="SvgjsLinearGradient1008"><stop stop-color="rgba(209, 188, 0, 0.2)" offset="0"></stop><stop stop-opacity="0" stop-color="rgba(209, 188, 0, 0.2)" offset="0.66"></stop></linearGradient></defs></svg>